<svg width="76" height="100" viewBox="0 0 76 100" fill="none" xmlns="http://www.w3.org/2000/svg">
<path d="M38 0L0.5 18.6812V62.6375C0.5 72.5831 4.45088 82.1214 11.4835 89.154C18.5161 96.1866 28.0544 100.137 38 100.137C47.9456 100.137 57.4839 96.1866 64.5165 89.154C71.5491 82.1214 75.5 72.5831 75.5 62.6375V18.6812L38 0ZM59.3438 85.3562L38 74.725V81.6875L53.7375 89.5281C48.9964 92.2896 43.6119 93.7545 38.1252 93.7754C32.6385 93.7963 27.2429 92.3725 22.4809 89.6473C17.7189 86.922 13.7581 82.9912 10.9968 78.25C8.2354 73.5088 6.77074 68.1242 6.75 62.6375V22.5312L38 6.9625L69.25 22.5312V34.25L38 18.6812V25.6438L69.25 41.2125V52.9312L38 37.3625V44.325L69.25 59.8938V62.6375C69.2514 65.4762 68.8624 68.3017 68.0938 71.0344L38 56.0438V63.0063L65.7969 76.8531C64.1481 80.0358 61.9654 82.9119 59.3438 85.3562Z" fill="white"/>
</svg>
