<svg width="133" height="100" viewBox="0 0 133 100" fill="none" xmlns="http://www.w3.org/2000/svg">
<path d="M127.217 81.3545C131.348 60.6311 131.412 39.3025 127.407 18.5544C129.364 17.5476 130.927 15.9125 131.843 13.9115C132.76 11.9105 132.978 9.65959 132.462 7.51988C131.947 5.38017 130.727 3.47571 128.999 2.11207C127.272 0.748427 125.136 0.00464779 122.935 6.23443e-05C121.182 0.00311918 119.461 0.471596 117.948 1.35763C116.435 2.24366 115.184 3.51547 114.324 5.04311C82.6993 -1.57759 50.0495 -1.61001 18.4118 4.94787C17.3344 3.06552 15.6649 1.59224 13.6631 0.757454C11.6614 -0.0773306 9.43977 -0.226763 7.34426 0.332423C5.24874 0.891609 3.39694 2.12803 2.07722 3.84914C0.757504 5.57026 0.0439425 7.67947 0.0476541 9.84831C0.0420291 11.5552 0.487941 13.2331 1.34016 14.712C2.19237 16.1909 3.42057 17.4181 4.90016 18.269C0.784431 39.1649 0.832982 60.6677 5.04303 81.5448C3.70642 82.292 2.56283 83.341 1.70342 84.6084C0.844016 85.8758 0.292555 87.3264 0.0929958 88.8446C-0.106563 90.3629 0.0512993 91.9067 0.554 93.3531C1.0567 94.7996 1.89034 96.1085 2.98846 97.1758C4.08659 98.243 5.41884 99.0389 6.87901 99.5001C8.33918 99.9613 9.8869 100.075 11.3988 99.8322C12.9107 99.5894 14.345 98.9967 15.5873 98.1015C16.8296 97.2062 17.8456 96.0331 18.5543 94.6757C34.1909 97.9044 50.1159 99.5304 66.0823 99.5286C82.2107 99.5247 98.2961 97.8668 114.086 94.5808C114.923 96.1947 116.185 97.5489 117.737 98.4965C119.288 99.4441 121.07 99.9491 122.888 99.9566C125.101 99.9553 127.249 99.2053 128.982 97.8285C130.715 96.4517 131.931 94.5291 132.433 92.3734C132.935 90.2176 132.692 87.9555 131.745 85.955C130.798 83.9544 129.202 82.3331 127.217 81.3546L127.217 81.3545ZM122.888 95.199C122.168 95.1977 121.457 95.0444 120.802 94.7493C120.146 94.4541 119.56 94.0238 119.082 93.4863C118.253 92.5756 117.794 91.3875 117.797 90.156C117.79 89.7204 117.855 89.2865 117.987 88.8716C116.37 89.252 114.705 89.6327 113.04 89.9181C82.2455 96.3404 50.4624 96.3891 19.6488 90.061C17.9835 89.728 16.366 89.3949 14.7483 89.0142C14.8427 89.3875 14.8906 89.771 14.8912 90.156C14.8848 91.4955 14.3481 92.778 13.3986 93.723C12.4491 94.6679 11.164 95.1984 9.8244 95.1984C8.48482 95.1984 7.19975 94.6679 6.25024 93.723C5.30073 92.778 4.76406 91.4955 4.75759 90.156C4.76241 88.8745 5.23621 87.6391 6.08953 86.683C6.57309 86.172 7.15584 85.765 7.80211 85.4868C8.44839 85.2087 9.14461 85.0654 9.84819 85.0656C10.1057 85.0472 10.3642 85.0795 10.6093 85.1606L10.1336 82.9723C9.94316 82.0683 9.75296 81.212 9.56277 80.3081C5.61432 60.2857 5.56581 39.6896 9.4199 19.6489C9.70532 18.0312 10.0384 16.4135 10.4191 14.8437C10.2315 14.8832 10.0397 14.8992 9.84821 14.8913C9.11302 14.8885 8.38732 14.7252 7.72174 14.413C7.05616 14.1007 6.46673 13.647 5.9946 13.0834C5.21446 12.1876 4.79111 11.0361 4.80521 9.84832C4.80521 8.50456 5.33902 7.21583 6.2892 6.26564C7.23938 5.31545 8.52811 4.78164 9.87187 4.78164C11.2156 4.78164 12.5044 5.31545 13.4546 6.26564C14.4047 7.21583 14.9385 8.50456 14.9385 9.84832C14.9464 10.0871 14.9305 10.3261 14.8912 10.5618C16.5086 10.1338 18.0787 9.80068 19.6961 9.51526C50.5089 3.19527 82.2871 3.22758 113.087 9.61022C114.705 9.94329 116.322 10.2764 117.94 10.7047C117.885 10.4223 117.853 10.1359 117.845 9.84834C117.847 9.16357 117.987 8.4863 118.257 7.85689C118.527 7.22749 118.92 6.65886 119.415 6.18491C119.878 5.72563 120.427 5.36294 121.032 5.11793C121.636 4.87292 122.283 4.75047 122.935 4.7577C124.279 4.7577 125.568 5.29152 126.518 6.24174C127.468 7.19195 128.002 8.48072 128.002 9.82453C128.002 11.1683 127.468 12.4571 126.518 13.4073C125.568 14.3575 124.279 14.8914 122.935 14.8914C122.55 14.8908 122.167 14.8428 121.793 14.7485C122.174 16.3662 122.507 18.0312 122.793 19.6489C126.607 39.6949 126.542 60.2864 122.602 80.3081C122.412 81.212 122.222 82.0683 122.031 82.9723L121.556 85.2559C121.986 85.1195 122.436 85.0553 122.888 85.0656C124.095 85.0682 125.261 85.5075 126.17 86.3024C126.952 86.9752 127.51 87.871 127.769 88.8698C128.028 89.8685 127.975 90.9225 127.618 91.8904C127.261 92.8583 126.616 93.694 125.771 94.2853C124.925 94.8767 123.919 95.1955 122.888 95.199L122.888 95.199Z" fill="white"/>
</svg>
