<svg width="100" height="126" viewBox="0 0 100 126" fill="none" xmlns="http://www.w3.org/2000/svg">
<path d="M50 81.5443C41.6288 81.5443 33.7628 78.2766 27.8497 72.3565C21.9366 66.4364 18.6728 58.5611 18.6728 50.18C18.6728 41.7989 21.9366 33.9236 27.8497 28.0035C33.7628 22.0834 41.6288 18.8157 50 18.8157C58.3712 18.8157 66.2372 22.0834 72.1503 28.0035C78.0634 33.9236 81.3272 41.7989 81.3272 50.18C81.3272 58.5611 78.0634 66.4364 72.1503 72.3565C66.2235 78.2903 58.3712 81.5443 50 81.5443ZM50 22.9448C34.9919 22.9448 22.7833 35.1678 22.7833 50.1937C22.7833 65.2195 34.9919 77.4426 50 77.4426C65.0081 77.4426 77.2167 65.2195 77.2167 50.1937C77.2167 35.1678 65.0081 22.9448 50 22.9448Z" fill="white"/>
<path d="M45.3433 62.4987L34.4047 51.5472L37.2998 48.6487L45.3433 56.7017L62.7002 39.3379L65.5953 42.2364L45.3433 62.4987Z" fill="white"/>
<path d="M50 100.221C48.0472 100.221 46.0943 99.7421 44.3054 98.785C43.9367 98.5936 43.5816 98.3749 43.2402 98.1424C42.5984 97.7186 41.9975 97.2127 41.4512 96.6658L36.2346 91.443C34.7324 89.939 32.725 89.105 30.5946 89.105H23.2203C16.5561 89.105 11.1346 83.6771 11.1346 77.005V69.622C11.1346 67.5165 10.2879 65.452 8.79938 63.9753L3.58273 58.7525C-1.12865 54.0356 -1.12865 46.3654 3.58273 41.6485L8.79938 36.4257C10.2879 34.9354 11.1346 32.8709 11.1346 30.779V23.396C11.1346 16.7239 16.5561 11.296 23.2203 11.296H30.5946C32.725 11.296 34.7324 10.462 36.2346 8.95801L41.4512 3.73519C43.7318 1.45191 46.7635 0.194061 50 0.194061C53.2365 0.194061 56.2545 1.45191 58.5487 3.73519L63.7654 8.95801C65.2676 10.4756 67.275 11.296 69.4054 11.296H76.7797C83.4439 11.296 88.8654 16.7239 88.8654 23.396V30.779C88.8654 32.9119 89.6984 34.9217 91.2006 36.4257L96.4173 41.6485C101.129 46.3654 101.129 54.0356 96.4173 58.7525L91.2006 63.9753C89.6984 65.4793 88.8654 67.4891 88.8654 69.622V77.005C88.8654 83.6771 83.4439 89.105 76.7797 89.105H69.4054C67.275 89.105 65.2676 89.939 63.7654 91.443L58.5487 96.6658C58.0025 97.2127 57.4016 97.7186 56.7598 98.1424C56.432 98.3749 56.0633 98.5799 55.6946 98.785C53.9057 99.7421 51.9528 100.221 50 100.221ZM23.2066 15.384C18.8093 15.384 15.2178 18.9661 15.2178 23.3823V30.7653C15.2178 33.992 13.9614 37.0272 11.6808 39.3105L6.46418 44.5333C3.35057 47.6506 3.35057 52.723 6.46418 55.8403L11.6808 61.0631C13.9614 63.3464 15.2178 66.3817 15.2178 69.622V77.005C15.2178 81.4075 18.7957 85.0033 23.2066 85.0033H30.5809C33.8038 85.0033 36.8355 86.2612 39.1297 88.5445L44.3463 93.7673C44.7151 94.1364 45.1111 94.4646 45.5344 94.7517C45.7529 94.9021 45.9851 95.0388 46.2309 95.1755C48.5934 96.4334 51.4066 96.4334 53.7554 95.1755C54.0012 95.0525 54.2334 94.9021 54.4519 94.7654C54.8752 94.4783 55.2849 94.1501 55.64 93.781L60.8566 88.5581C63.1372 86.2749 66.1689 85.017 69.4054 85.017H76.7797C81.177 85.017 84.7686 81.4349 84.7686 77.0187V69.6357C84.7686 66.409 86.0249 63.3601 88.3055 61.0768L93.5222 55.854C96.6358 52.7367 96.6358 47.6643 93.5222 44.547L88.3055 39.3242C86.0249 37.0409 84.7686 34.0057 84.7686 30.7653V23.3823C84.7686 18.9798 81.1907 15.384 76.7797 15.384H69.4054C66.1825 15.384 63.1372 14.1261 60.8566 11.8429L55.64 6.62004C52.5264 3.50276 47.46 3.50276 44.3463 6.62004L39.1297 11.8429C36.8491 14.1261 33.8175 15.384 30.5809 15.384H23.2066V15.384Z" fill="white"/>
<path d="M35.2104 125.938L25.7876 114.344L11.0253 116.586L23.2066 85.017H30.5809C33.8038 85.017 36.8355 86.2749 39.1297 88.5581L44.3464 93.781C44.7151 94.1501 45.1111 94.4783 45.5344 94.7654L46.8864 95.6814L35.2104 125.938ZM27.4947 109.928L33.9404 117.858L41.9429 97.1307C41.779 96.9803 41.6151 96.8299 41.4649 96.6795L36.2483 91.4567C34.7461 89.9527 32.7386 89.1187 30.6083 89.1187H26.0334L17.4028 111.473L27.4947 109.928Z" fill="white"/>
<path d="M64.7896 125.938L53.1136 95.6677L54.4656 94.7517C54.8889 94.4646 55.2849 94.1364 55.6537 93.7673L60.8703 88.5445C63.1509 86.2612 66.1826 85.0033 69.4191 85.0033H76.7934L88.9747 116.573L74.2124 114.33L64.7896 125.938ZM58.0571 97.1307L66.0596 117.872L72.5054 109.942L82.5973 111.473L73.9666 89.1187H69.3918C67.2614 89.1187 65.2539 89.9527 63.7518 91.4567L58.5351 96.6795C58.3849 96.8299 58.221 96.9803 58.0571 97.1307Z" fill="white"/>
</svg>
